<?xml version="1.0" standalone="no"?>
<!DOCTYPE svg PUBLIC "-//W3C//DTD SVG 20010904//EN"
 "http://www.w3.org/TR/2001/REC-SVG-20010904/DTD/svg10.dtd">
<svg version="1.0" xmlns="http://www.w3.org/2000/svg"
 width="510.000000pt" height="510.000000pt" viewBox="0 0 510.000000 510.000000"
 preserveAspectRatio="xMidYMid meet">

<g transform="translate(0.000000,510.000000) scale(0.100000,-0.100000)"
fill="#000000" stroke="none">
<path d="M100 3580 l0 -200 586 0 c362 0 584 -4 582 -9 -1 -6 -51 -62 -110
-125 l-108 -116 0 -976 c0 -943 0 -975 18 -962 10 7 102 100 205 206 l187 193
0 894 0 895 297 2 296 3 -119 130 c-65 72 -146 161 -178 198 l-60 67 -798 0
-798 0 0 -200z"/>
<path d="M2998 3034 l-3 -746 -235 268 c-129 148 -301 344 -383 437 l-149 167
-269 0 -269 0 0 -808 c0 -445 3 -897 7 -1006 l6 -196 201 2 201 3 3 753 c1
413 6 752 10 752 4 0 73 -75 152 -167 167 -192 332 -382 616 -708 110 -126
274 -315 364 -420 l165 -190 3 1103 2 1102 111 0 111 0 187 191 c102 105 188
195 189 200 2 5 -220 9 -507 9 l-511 0 -2 -746z"/>
<path d="M4084 3577 l-181 -192 196 -5 196 -5 68 -33 c334 -165 308 -612 -43
-749 -38 -14 -93 -18 -348 -23 l-303 -5 106 -115 c59 -63 142 -155 184 -203
l76 -89 145 5 c164 6 266 30 389 92 128 64 262 189 340 319 126 210 143 508
41 732 -96 212 -284 372 -516 439 -158 46 -141 54 -350 -168z"/>
<path d="M3670 1720 l0 -570 198 2 197 3 3 343 2 344 -22 27 c-41 51 -370 421
-374 421 -2 0 -4 -257 -4 -570z"/>
<path d="M1365 1230 l-80 -80 82 0 c92 0 93 1 93 83 0 85 -8 85 -95 -3z"/>
</g>
</svg>
